<svg width="59" height="72" viewBox="0 0 59 72" fill="none" xmlns="http://www.w3.org/2000/svg">
<path fill-rule="evenodd" clip-rule="evenodd" d="M2.75158 0.373387C0.465851 1.56205 -0.0399203 3.06625 0.00238225 8.54697C0.0916359 20.0688 3.31221 32.0097 9.40284 43.402C11.5482 47.4147 20.1393 57.8655 23.438 60.4753C32.818 67.8962 42.6192 71.802 52.1293 71.9106C56.2173 71.957 56.4749 71.8868 57.7077 70.3911L59 68.8236V59.8012C59 50.8648 58.9888 50.7653 57.8048 49.325C56.7966 48.099 55.8492 47.7439 51.7616 47.0602C49.0952 46.6146 46.0768 45.9965 45.0541 45.6877C41.5825 44.6382 40.8764 44.9011 36.6591 48.816C34.0931 51.1973 32.3912 52.4103 31.9222 52.1914C29.888 51.242 24.6201 46.3799 22.1624 43.1843C19.7456 40.0413 16.0002 33.5003 16.0002 32.4225C16.0002 32.2189 17.3599 29.8597 19.0218 27.1793C22.2191 22.0231 22.5245 20.7785 21.5637 16.8201C21.3001 15.7338 20.7929 12.1978 20.4364 8.96204C19.8864 3.9699 19.6057 2.85702 18.582 1.61068C17.4041 0.176032 17.2181 0.139275 10.5287 0.0159982C6.76288 -0.0529915 3.26293 0.107607 2.75158 0.373387Z" fill="#EF4136"/>
</svg>
